RobotoExtremo-opsz144-wght400-wdth25-XOPQ500.ufo
<glyph name="plus" format="2">
  <advance width="449"/>
  <unicode hex="002B"/>
  <outline>
    <contour>
      <point x="25.24050632911394" y="626.5569620253165" type="line"/>
      <point x="25.24050632911394" y="722.5569620253165" type="line"/>
      <point x="424.0759493670887" y="722.5569620253165" type="line"/>
      <point x="424.0759493670887" y="626.5569620253165" type="line"/>
    </contour>
    <contour>
      <point x="133.10126582278485" y="435.72151898734177" type="line"/>
      <point x="133.10126582278485" y="912.2784810126582" type="line"/>
      <point x="316.21518987341767" y="912.2784810126582" type="line"/>
      <point x="316.21518987341767" y="435.72151898734177" type="line"/>
    </contour>
  </outline>
</glyph>
<glyph name="two" format="2">
  <advance width="352"/>
  <unicode hex="0032"/>
  <outline>
    <contour>
      <point x="-61.544303797468345" y="0.0" type="line"/>
      <point x="-61.544303797468345" y="84.0" type="line"/>
      <point x="132.2911392405063" y="675.0" type="line" smooth="yes"/>
      <point x="161.18987341772151" y="793.0"/>
      <point x="225.0" y="1048.0"/>
      <point x="225.0" y="1192.0" type="qcurve" smooth="yes"/>
      <point x="225.0" y="1288.0"/>
      <point x="207.0" y="1370.0"/>
      <point x="172.0" y="1370.0" type="qcurve" smooth="yes"/>
      <point x="142.0" y="1370.0"/>
      <point x="125.0" y="1310.0"/>
      <point x="125.0" y="1185.0" type="qcurve" smooth="yes"/>
      <point x="125.0" y="975.0" type="line"/>
      <point x="-60.68354430379746" y="975.0" type="line"/>
      <point x="-60.68354430379746" y="1215.0" type="line" smooth="yes"/>
      <point x="-61.68354430379746" y="1375.0"/>
      <point x="66.44303797468353" y="1466.0"/>
      <point x="177.0" y="1466.0" type="qcurve" smooth="yes"/>
      <point x="293.55696202531647" y="1466.0"/>
      <point x="415.6835443037975" y="1359.0"/>
      <point x="415.6835443037975" y="1202.0" type="qcurve" smooth="yes"/>
      <point x="415.6835443037975" y="1026.0"/>
      <point x="357.11392405063293" y="790.0"/>
      <point x="319.75949367088606" y="657.0" type="qcurve" smooth="yes"/>
      <point x="202.65822784810126" y="90.43037974683544" type="line"/>
      <point x="423.5443037974684" y="90.43037974683544" type="line"/>
      <point x="423.5443037974684" y="0.0" type="line"/>
    </contour>
  </outline>
</glyph>
<glyph name="four" format="2">
  <advance width="352"/>
  <unicode hex="0034"/>
  <outline>
    <contour>
      <point x="147.15189873417722" y="0.0" type="line"/>
      <point x="147.15189873417722" y="391.55696202531647" type="line"/>
      <point x="153.15189873417722" y="405.55696202531647" type="line"/>
      <point x="153.15189873417722" y="978.4430379746836" type="line"/>
      <point x="149.15189873417722" y="978.4430379746836" type="line"/>
      <point x="96.56962025316456" y="440.55696202531647" type="line"/>
      <point x="175.15189873417722" y="440.55696202531647" type="line"/>
      <point x="200.15189873417722" y="445.55696202531647" type="line"/>
      <point x="415.4050632911392" y="445.55696202531647" type="line"/>
      <point x="415.4050632911392" y="276.59493670886076" type="line"/>
      <point x="8.0" y="276.59493670886076" type="line"/>
      <point x="8.0" y="432.0" type="line"/>
      <point x="170.11392405063293" y="1456.0" type="line"/>
      <point x="342.4050632911392" y="1456.0" type="line"/>
      <point x="342.4050632911392" y="0.0" type="line"/>
    </contour>
  </outline>
</glyph>
<glyph name="question" format="2">
  <advance width="534"/>
  <unicode hex="003F"/>
  <outline>
    <contour>
      <point x="113.7721518987342" y="67.0" type="qcurve" smooth="yes"/>
      <point x="113.7721518987342" y="102.0"/>
      <point x="178.8354430379747" y="149.0"/>
      <point x="239.2278481012658" y="149.0" type="qcurve" smooth="yes"/>
      <point x="299.62025316455697" y="149.0"/>
      <point x="364.6835443037975" y="102.0"/>
      <point x="364.6835443037975" y="67.0" type="qcurve" smooth="yes"/>
      <point x="364.6835443037975" y="31.0"/>
      <point x="299.62025316455697" y="-16.0"/>
      <point x="239.2278481012658" y="-16.0" type="qcurve" smooth="yes"/>
      <point x="178.8354430379747" y="-16.0"/>
      <point x="113.7721518987342" y="32.0"/>
    </contour>
    <contour>
      <point x="26.0" y="1046.0" type="line"/>
      <point x="26.0" y="1244.0" type="line" smooth="yes"/>
      <point x="26.0" y="1367.0"/>
      <point x="146.35443037974682" y="1467.0"/>
      <point x="262.46835443037975" y="1467.0" type="qcurve" smooth="yes"/>
      <point x="382.1392405063291" y="1467.0"/>
      <point x="512.8227848101266" y="1367.0"/>
      <point x="512.8227848101266" y="1232.0" type="qcurve" smooth="yes"/>
      <point x="512.8227848101266" y="1149.0"/>
      <point x="490.4050632911392" y="950.0"/>
      <point x="436.7848101265822" y="854.0" type="qcurve" smooth="yes"/>
      <point x="383.4050632911392" y="732.0"/>
      <point x="331.02531645569616" y="547.0"/>
      <point x="331.02531645569616" y="485.0" type="qcurve" smooth="yes"/>
      <point x="331.02531645569616" y="335.0" type="line"/>
      <point x="142.11392405063293" y="335.0" type="line"/>
      <point x="142.11392405063293" y="483.0" type="line" smooth="yes"/>
      <point x="142.11392405063293" y="569.0"/>
      <point x="207.84810126582278" y="766.0"/>
      <point x="255.21518987341767" y="886.0" type="qcurve" smooth="yes"/>
      <point x="301.37974683544303" y="976.0"/>
      <point x="318.9113924050632" y="1158.0"/>
      <point x="318.9113924050632" y="1239.0" type="qcurve" smooth="yes"/>
      <point x="318.9113924050632" y="1320.0"/>
      <point x="295.4683544303798" y="1370.0"/>
      <point x="268.46835443037975" y="1370.0" type="qcurve" smooth="yes"/>
      <point x="247.46835443037975" y="1370.0"/>
      <point x="218.46835443037975" y="1332.0"/>
      <point x="218.46835443037975" y="1242.0" type="qcurve" smooth="yes"/>
      <point x="218.46835443037975" y="1046.0" type="line"/>
    </contour>
  </outline>
</glyph>
<glyph name="C" format="2">
  <advance width="536"/>
  <unicode hex="0043"/>
  <anchor x="273.4556962025316" y="0" name="bottom"/>
  <outline>
    <contour>
      <point x="42.0" y="206.0" type="qcurve" smooth="yes"/>
      <point x="42.0" y="1260.0" type="line" smooth="yes"/>
      <point x="42.0" y="1370.0"/>
      <point x="165.91139240506328" y="1466.0"/>
      <point x="273.4556962025316" y="1466.0" type="qcurve" smooth="yes"/>
      <point x="375.4556962025316" y="1466.0"/>
      <point x="482.2151898734178" y="1384.4430379746836"/>
      <point x="494.4683544303798" y="1304.0" type="qcurve" smooth="yes"/>
      <point x="495.02531645569616" y="934.0" type="line"/>
      <point x="305.4556962025316" y="934.0" type="line"/>
      <point x="304.89873417721515" y="1294.0" type="line" smooth="yes"/>
      <point x="299.3291139240506" y="1340.4430379746836"/>
      <point x="288.4556962025316" y="1362.0"/>
      <point x="272.4556962025316" y="1362.0" type="qcurve" smooth="yes"/>
      <point x="252.4556962025316" y="1362.0"/>
      <point x="234.4556962025316" y="1328.0"/>
      <point x="234.4556962025316" y="1260.0" type="qcurve" smooth="yes"/>
      <point x="234.4556962025316" y="206.0" type="line" smooth="yes"/>
      <point x="234.4556962025316" y="121.0"/>
      <point x="250.4556962025316" y="86.0"/>
      <point x="271.4556962025316" y="86.0" type="qcurve" smooth="yes"/>
      <point x="290.4556962025316" y="86.0"/>
      <point x="309.56962025316454" y="114.0"/>
      <point x="308.4556962025316" y="186.0" type="qcurve" smooth="yes"/>
      <point x="308.4556962025316" y="522.0" type="line"/>
      <point x="496.02531645569616" y="522.0" type="line"/>
      <point x="496.02531645569616" y="178.0" type="line" smooth="yes"/>
      <point x="494.9113924050632" y="83.0"/>
      <point x="379.4556962025316" y="-10.0"/>
      <point x="273.4556962025316" y="-10.0" type="qcurve" smooth="yes"/>
      <point x="164.91139240506328" y="-10.0"/>
      <point x="42.0" y="100.0"/>
    </contour>
  </outline>
</glyph>
<glyph name="D" format="2">
  <advance width="561"/>
  <unicode hex="0044"/>
  <outline>
    <contour>
      <point x="46.0" y="0.0" type="line"/>
      <point x="46.0" y="1456.0" type="line"/>
      <point x="267.0" y="1456.0" type="line" smooth="yes"/>
      <point x="382.64409638087113" y="1456.0"/>
      <point x="519.4556962025317" y="1315.0"/>
      <point x="519.4556962025317" y="1154.0" type="qcurve" smooth="yes"/>
      <point x="519.4556962025317" y="263.0" type="line" smooth="yes"/>
      <point x="519.4556962025317" y="139.0"/>
      <point x="374.64409638087113" y="0.0"/>
      <point x="261.0" y="0.0" type="qcurve" smooth="yes"/>
    </contour>
    <contour>
      <point x="232.0" y="95.0" type="line"/>
      <point x="249.0" y="95.0" type="line" smooth="yes"/>
      <point x="288.0" y="95.0"/>
      <point x="327.0" y="181.0"/>
      <point x="327.0" y="257.0" type="qcurve" smooth="yes"/>
      <point x="327.0" y="1188.0" type="line" smooth="yes"/>
      <point x="327.0" y="1288.0"/>
      <point x="284.0" y="1355.0"/>
      <point x="249.0" y="1355.0" type="qcurve" smooth="yes"/>
      <point x="232.0" y="1355.0" type="line"/>
    </contour>
  </outline>
</glyph>
<glyph name="F" format="2">
  <advance width="403"/>
  <unicode hex="0046"/>
  <outline>
    <contour>
      <point x="46.0" y="0.0" type="line"/>
      <point x="46.0" y="1456.0" type="line"/>
      <point x="400.69620253164555" y="1456.0" type="line"/>
      <point x="400.69620253164555" y="1358.0" type="line"/>
      <point x="232.0" y="1358.0" type="line"/>
      <point x="232.0" y="803.0" type="line"/>
      <point x="385.69620253164555" y="803.0" type="line"/>
      <point x="385.69620253164555" y="700.0" type="line"/>
      <point x="232.0" y="700.0" type="line"/>
      <point x="232.0" y="0.0" type="line"/>
    </contour>
  </outline>
</glyph>
<glyph name="G" format="2">
  <advance width="532"/>
  <unicode hex="0047"/>
  <outline>
    <contour>
      <point x="42.0" y="202.0" type="qcurve" smooth="yes"/>
      <point x="42.0" y="1259.0" type="line" smooth="yes"/>
      <point x="42.0" y="1370.0"/>
      <point x="164.91139240506328" y="1466.0"/>
      <point x="273.21518987341767" y="1466.0" type="qcurve" smooth="yes"/>
      <point x="397.89873417721515" y="1466.0"/>
      <point x="513.4683544303798" y="1374.0"/>
      <point x="514.0253164556962" y="1259.0" type="qcurve" smooth="yes"/>
      <point x="514.0253164556962" y="1017.0" type="line"/>
      <point x="329.4556962025316" y="1017.0" type="line"/>
      <point x="328.89873417721515" y="1237.0" type="line" smooth="yes"/>
      <point x="325.0" y="1322.0"/>
      <point x="303.4556962025316" y="1362.0"/>
      <point x="276.3291139240506" y="1362.0" type="qcurve" smooth="yes"/>
      <point x="264.4556962025316" y="1362.0"/>
      <point x="233.4556962025316" y="1333.0"/>
      <point x="233.4556962025316" y="1237.0" type="qcurve" smooth="yes"/>
      <point x="233.4556962025316" y="204.0" type="line" smooth="yes"/>
      <point x="233.4556962025316" y="129.0"/>
      <point x="256.4556962025316" y="84.0"/>
      <point x="280.4556962025316" y="84.0" type="qcurve" smooth="yes"/>
      <point x="298.0126582278481" y="84.0"/>
      <point x="315.126582278481" y="98.0"/>
      <point x="322.6835443037975" y="113.0" type="qcurve"/>
      <point x="322.6835443037975" y="627.0" type="line"/>
      <point x="263.4556962025316" y="627.0" type="line"/>
      <point x="263.4556962025316" y="723.0" type="line"/>
      <point x="504.02531645569616" y="723.0" type="line"/>
      <point x="504.02531645569616" y="66.0" type="line"/>
      <point x="476.5443037974684" y="40.0"/>
      <point x="364.873417721519" y="-10.0"/>
      <point x="280.4556962025316" y="-10.0" type="qcurve" smooth="yes"/>
      <point x="165.126582278481" y="-10.0"/>
      <point x="42.0" y="93.0"/>
    </contour>
  </outline>
</glyph>
<glyph name="M" format="2">
  <advance width="631"/>
  <unicode hex="004D"/>
  <outline>
    <contour>
      <point x="46.0" y="0.0" type="line"/>
      <point x="46.0" y="1456.0" type="line"/>
      <point x="253.82278481012656" y="1456.0" type="line"/>
      <point x="305.6582278481012" y="417.0506329113924" type="line" smooth="yes"/>
      <point x="306.10126582278485" y="409.0506329113924"/>
      <point x="308.6582278481012" y="388.0506329113924"/>
      <point x="308.6582278481012" y="383.0506329113924" type="qcurve"/>
      <point x="308.6582278481012" y="383.0506329113924" type="line"/>
      <point x="308.6582278481012" y="388.0506329113924"/>
      <point x="310.6582278481012" y="409.0506329113924"/>
      <point x="311.6582278481012" y="417.0506329113924" type="qcurve" smooth="yes"/>
      <point x="387.0" y="1456.0" type="line"/>
      <point x="585.3417721518988" y="1456.0" type="line"/>
      <point x="585.3417721518988" y="0.0" type="line"/>
      <point x="399.0" y="0.0" type="line"/>
      <point x="399.0" y="792.7848101265822" type="line" smooth="yes"/>
      <point x="399.0" y="803.7848101265822"/>
      <point x="399.0" y="836.7848101265822"/>
      <point x="399.0" y="852.7848101265822" type="qcurve"/>
      <point x="399.0" y="852.7848101265822" type="line"/>
      <point x="396.0" y="836.7848101265822"/>
      <point x="391.0" y="801.7848101265822"/>
      <point x="390.0" y="792.7848101265822" type="qcurve" smooth="yes"/>
      <point x="325.0" y="0.0" type="line"/>
      <point x="182.15189873417717" y="0.0" type="line"/>
      <point x="146.0" y="789.5569620253164" type="line" smooth="yes"/>
      <point x="145.55696202531647" y="799.1139240506329"/>
      <point x="139.0" y="837.5569620253164"/>
      <point x="137.0" y="850.5569620253164" type="qcurve"/>
      <point x="137.0" y="850.5569620253164" type="line"/>
      <point x="137.0" y="836.5569620253164"/>
      <point x="137.0" y="797.5569620253164"/>
      <point x="137.0" y="788.5569620253164" type="qcurve" smooth="yes"/>
      <point x="137.0" y="0.0" type="line"/>
    </contour>
  </outline>
</glyph>
<glyph name="S" format="2">
  <advance width="489"/>
  <unicode hex="0053"/>
  <outline>
    <contour>
      <point x="10.0" y="253.0" type="qcurve" smooth="yes"/>
      <point x="10.0" y="488.0" type="line"/>
      <point x="194.0" y="488.0" type="line"/>
      <point x="194.0" y="263.0" type="line" smooth="yes"/>
      <point x="193.0" y="150.0"/>
      <point x="212.0" y="86.0"/>
      <point x="242.0" y="86.0" type="qcurve" smooth="yes"/>
      <point x="270.0" y="86.0"/>
      <point x="288.88607594936707" y="152.0"/>
      <point x="290.0" y="313.53164556962025" type="qcurve" smooth="yes"/>
      <point x="293.89873417721515" y="470.4177215189873"/>
      <point x="282.82278481012656" y="564.6835443037975"/>
      <point x="197.1645569620253" y="681.7974683544304" type="qcurve" smooth="yes"/>
      <point x="113.51898734177217" y="806.2405063291139"/>
      <point x="14.886075949367083" y="994.5949367088608"/>
      <point x="14.886075949367083" y="1152.1898734177216" type="qcurve" smooth="yes"/>
      <point x="14.886075949367083" y="1357.7848101265822"/>
      <point x="134.2278481012658" y="1467.0"/>
      <point x="243.0" y="1467.0" type="qcurve" smooth="yes"/>
      <point x="350.6582278481012" y="1467.0"/>
      <point x="462.0" y="1367.0"/>
      <point x="462.0" y="1258.0" type="qcurve" smooth="yes"/>
      <point x="462.0" y="992.0" type="line"/>
      <point x="277.0" y="992.0" type="line"/>
      <point x="277.0" y="1236.0" type="line" smooth="yes"/>
      <point x="277.0" y="1317.0"/>
      <point x="264.0" y="1362.0"/>
      <point x="240.0" y="1362.0" type="qcurve" smooth="yes"/>
      <point x="217.0" y="1362.0"/>
      <point x="204.0" y="1331.139240506329"/>
      <point x="204.0" y="1184.379746835443" type="qcurve" smooth="yes"/>
      <point x="204.0" y="1087.9493670886077"/>
      <point x="242.7721518987342" y="959.2151898734177"/>
      <point x="310.84810126582283" y="869.4430379746835" type="qcurve" smooth="yes"/>
      <point x="394.0506329113924" y="756.5569620253165"/>
      <point x="478.55696202531647" y="557.1898734177215"/>
      <point x="478.55696202531647" y="358.253164556962" type="qcurve" smooth="yes"/>
      <point x="478.55696202531647" y="121.77215189873417"/>
      <point x="356.2151898734178" y="-10.0"/>
      <point x="245.0" y="-10.0" type="qcurve" smooth="yes"/>
      <point x="135.4556962025316" y="-10.0"/>
      <point x="10.0" y="101.0"/>
    </contour>
  </outline>
</glyph>
<glyph name="X" format="2">
  <advance width="467"/>
  <unicode hex="0058"/>
  <outline>
    <contour>
      <point x="0.0" y="0.0" type="line"/>
      <point x="157.0" y="870.0" type="line"/>
      <point x="218.69620253164555" y="870.0" type="line"/>
      <point x="310.69620253164555" y="1456.0" type="line"/>
      <point x="457.3924050632911" y="1456.0" type="line"/>
      <point x="318.3924050632911" y="658.0" type="line"/>
      <point x="256.69620253164555" y="658.0" type="line"/>
      <point x="146.69620253164555" y="0.0" type="line"/>
    </contour>
    <contour>
      <point x="14.0" y="1456.0" type="line"/>
      <point x="222.39240506329114" y="1456.0" type="line"/>
      <point x="319.3924050632911" y="873.0" type="line"/>
      <point x="319.3924050632911" y="873.0" type="line"/>
      <point x="467.3924050632911" y="0.0" type="line"/>
      <point x="259.0" y="0.0" type="line"/>
      <point x="152.0" y="673.0" type="line"/>
      <point x="152.0" y="674.0" type="line"/>
    </contour>
  </outline>
</glyph>
<glyph name="bracketright" format="2">
  <advance width="316"/>
  <unicode hex="005D"/>
  <outline>
    <contour>
      <point x="272.4810126582278" y="-310.0" type="line"/>
      <point x="-6.848101265822784" y="-310.0" type="line"/>
      <point x="-6.848101265822784" y="-228.0" type="line"/>
      <point x="85.15189873417722" y="-228.0" type="line"/>
      <point x="85.15189873417722" y="1374.0" type="line"/>
      <point x="-6.848101265822784" y="1374.0" type="line"/>
      <point x="-6.848101265822784" y="1456.0" type="line"/>
      <point x="272.4810126582278" y="1456.0" type="line"/>
    </contour>
  </outline>
</glyph>
<glyph name="asciicircum" format="2">
  <advance width="416"/>
  <unicode hex="005E"/>
  <outline>
    <contour>
      <point x="10.0" y="897.0" type="line"/>
      <point x="102.0" y="1459.0" type="line"/>
      <point x="314.3924050632911" y="1459.0" type="line"/>
      <point x="406.3924050632911" y="897.0" type="line"/>
      <point x="209.0" y="897.0" type="line"/>
      <point x="207.69620253164555" y="1267.0" type="line"/>
      <point x="207.3924050632911" y="897.0" type="line"/>
    </contour>
  </outline>
</glyph>
<glyph name="n" format="2">
  <advance width="532"/>
  <unicode hex="006E"/>
  <anchor x="269.77215189873414" y="914.0" name="top"/>
  <outline>
    <contour>
      <point x="40.0" y="0.0" type="line"/>
      <point x="40.0" y="914.0" type="line"/>
      <point x="212.7721518987342" y="914.0" type="line"/>
      <point x="212.7721518987342" y="864.0" type="line"/>
      <point x="213.7721518987342" y="864.0" type="line"/>
      <point x="231.44303797468353" y="894.0"/>
      <point x="298.36708860759495" y="924.0"/>
      <point x="336.0506329113924" y="924.0" type="qcurve" smooth="yes"/>
      <point x="408.0126582278481" y="924.0"/>
      <point x="493.5443037974684" y="858.0"/>
      <point x="493.5443037974684" y="784.0" type="qcurve" smooth="yes"/>
      <point x="493.5443037974684" y="0.0" type="line"/>
      <point x="316.77215189873414" y="0.0" type="line"/>
      <point x="316.77215189873414" y="750.0" type="line" smooth="yes"/>
      <point x="316.77215189873414" y="805.0"/>
      <point x="290.77215189873414" y="833.0"/>
      <point x="270.7721518987342" y="833.0" type="qcurve" smooth="yes"/>
      <point x="249.7721518987342" y="833.0"/>
      <point x="221.7721518987342" y="809.0"/>
      <point x="216.7721518987342" y="785.0" type="qcurve"/>
      <point x="216.7721518987342" y="0.0" type="line"/>
    </contour>
  </outline>
</glyph>
<glyph name="r" format="2">
  <advance width="350"/>
  <unicode hex="0072"/>
  <outline>
    <contour>
      <point x="40.0" y="0.0" type="line"/>
      <point x="40.0" y="914.0" type="line"/>
      <point x="211.7721518987342" y="914.0" type="line"/>
      <point x="211.7721518987342" y="854.0" type="line"/>
      <point x="212.7721518987342" y="854.0" type="line"/>
      <point x="223.7721518987342" y="892.0"/>
      <point x="265.7721518987342" y="924.0"/>
      <point x="295.7721518987342" y="924.0" type="qcurve" smooth="yes"/>
      <point x="310.77215189873414" y="924.0"/>
      <point x="341.77215189873414" y="919.0"/>
      <point x="349.77215189873414" y="915.0" type="qcurve"/>
      <point x="347.77215189873414" y="820.0" type="line"/>
      <point x="337.77215189873414" y="823.0"/>
      <point x="315.7721518987342" y="827.0"/>
      <point x="297.7721518987342" y="827.0" type="qcurve" smooth="yes"/>
      <point x="271.7721518987342" y="827.0"/>
      <point x="229.7721518987342" y="782.0"/>
      <point x="216.7721518987342" y="733.0" type="qcurve"/>
      <point x="216.7721518987342" y="0.0" type="line"/>
    </contour>
  </outline>
</glyph>
<glyph name="t" format="2">
  <advance width="316"/>
  <unicode hex="0074"/>
  <outline>
    <contour>
      <point x="-6.0" y="826.0" type="line"/>
      <point x="-6.0" y="914.0" type="line"/>
      <point x="310.7721518987342" y="914.0" type="line"/>
      <point x="310.7721518987342" y="826.0" type="line"/>
    </contour>
    <contour>
      <point x="47.0" y="144.0" type="qcurve" smooth="yes"/>
      <point x="47.0" y="872.0" type="line"/>
      <point x="47.0" y="883.0" type="line"/>
      <point x="47.0" y="1142.0" type="line"/>
      <point x="224.7721518987342" y="1142.0" type="line"/>
      <point x="224.7721518987342" y="166.0" type="line" smooth="yes"/>
      <point x="224.7721518987342" y="115.0"/>
      <point x="255.7721518987342" y="81.0"/>
      <point x="278.7721518987342" y="81.0" type="qcurve" smooth="yes"/>
      <point x="292.7721518987342" y="81.0"/>
      <point x="310.7721518987342" y="86.0"/>
      <point x="317.7721518987342" y="90.0" type="qcurve"/>
      <point x="319.7721518987342" y="1.0" type="line"/>
      <point x="308.7721518987342" y="-5.0"/>
      <point x="276.7721518987342" y="-9.0"/>
      <point x="252.7721518987342" y="-9.0" type="qcurve" smooth="yes"/>
      <point x="157.78481012658227" y="-9.0"/>
      <point x="47.0" y="69.0"/>
    </contour>
  </outline>
</glyph>
<glyph name="x" format="2">
  <advance width="405"/>
  <unicode hex="0078"/>
  <outline>
    <contour>
      <point x="33.41772151898734" y="0.0" type="line"/>
      <point x="160.2911392405063" y="532.0" type="line"/>
      <point x="181.7341772151899" y="572.0" type="line"/>
      <point x="259.4050632911392" y="914.0" type="line"/>
      <point x="354.84810126582283" y="914.0" type="line"/>
      <point x="223.84810126582278" y="386.0" type="line"/>
      <point x="201.2911392405063" y="346.0" type="line"/>
      <point x="126.29113924050633" y="0.0" type="line"/>
    </contour>
    <contour>
      <point x="-11.139240506329113" y="914.0" type="line"/>
      <point x="194.25316455696202" y="914.0" type="line"/>
      <point x="246.9367088607595" y="598.4430379746835" type="line"/>
      <point x="255.9367088607595" y="569.4430379746835" type="line"/>
      <point x="405.30379746835445" y="0.0" type="line"/>
      <point x="193.34177215189874" y="0.0" type="line"/>
      <point x="149.56962025316454" y="314.6708860759494" type="line"/>
      <point x="141.56962025316454" y="340.6708860759494" type="line"/>
    </contour>
  </outline>
</glyph>
<glyph name="horncomb" format="2">
  <advance width="500"/>
  <unicode hex="031B"/>
  <outline>
    <contour>
      <point x="100.0" y="914.0" type="line"/>
      <point x="144.0" y="914.0" type="line" smooth="yes"/>
      <point x="185.0" y="914.0"/>
      <point x="234.0" y="938.0"/>
      <point x="234.0" y="990.0" type="qcurve" smooth="yes"/>
      <point x="234.0" y="1019.0"/>
      <point x="222.0" y="1071.0"/>
      <point x="201.0" y="1105.0" type="qcurve"/>
      <point x="287.0" y="1105.0" type="line"/>
      <point x="305.0" y="1072.0"/>
      <point x="330.0" y="1006.0"/>
      <point x="330.0" y="965.0" type="qcurve" smooth="yes"/>
      <point x="330.0" y="912.0"/>
      <point x="271.0" y="843.0"/>
      <point x="191.0" y="843.0" type="qcurve" smooth="yes"/>
      <point x="160.0" y="843.0"/>
      <point x="119.0" y="857.0"/>
      <point x="100.0" y="863.0" type="qcurve"/>
    </contour>
  </outline>
</glyph>
<glyph name="brevebelowcomb" format="2">
  <advance width="500"/>
  <unicode hex="032E"/>
  <outline>
    <contour>
      <point x="394.0" y="-116.0" type="qcurve"/>
      <point x="452.0" y="-143.0" type="line"/>
      <point x="431.0" y="-222.0"/>
      <point x="324.0" y="-322.0"/>
      <point x="248.0" y="-322.0" type="qcurve" smooth="yes"/>
      <point x="180.0" y="-322.0"/>
      <point x="70.0" y="-229.0"/>
      <point x="44.0" y="-142.0" type="qcurve"/>
      <point x="107.0" y="-116.0" type="line"/>
      <point x="129.0" y="-161.0"/>
      <point x="201.0" y="-221.0"/>
      <point x="249.0" y="-221.0" type="qcurve" smooth="yes"/>
      <point x="300.0" y="-221.0"/>
      <point x="370.0" y="-166.0"/>
    </contour>
  </outline>
</glyph>
<glyph name="endash" format="2">
  <advance width="500"/>
  <unicode hex="2013"/>
  <outline>
    <contour>
      <point x="0.0" y="532.0" type="line"/>
      <point x="0.0" y="630.0" type="line"/>
      <point x="500.0" y="630.0" type="line"/>
      <point x="500.0" y="532.0" type="line"/>
    </contour>
  </outline>
</glyph>
<glyph name="second" format="2">
  <advance width="535"/>
  <unicode hex="2033"/>
  <outline>
    <contour>
      <point x="62.0" y="1029.0" type="line"/>
      <point x="215.0" y="1489.0" type="line"/>
      <point x="308.0" y="1443.0" type="line"/>
      <point x="119.0" y="993.0" type="line"/>
    </contour>
    <contour>
      <point x="261.44303797468353" y="1029.0" type="line"/>
      <point x="414.44303797468353" y="1489.0" type="line"/>
      <point x="507.44303797468353" y="1443.0" type="line"/>
      <point x="318.44303797468353" y="993.0" type="line"/>
    </contour>
  </outline>
</glyph>
<glyph name="caroncomb.case" format="2">
  <advance width="500"/>
  <outline>
    <contour>
      <point x="206.0" y="1452.0" type="line"/>
      <point x="76.0" y="1643.0" type="line"/>
      <point x="175.0" y="1643.0" type="line"/>
      <point x="247.0" y="1553.0" type="line"/>
      <point x="318.0" y="1643.0" type="line"/>
      <point x="416.0" y="1643.0" type="line"/>
      <point x="288.0" y="1452.0" type="line"/>
    </contour>
  </outline>
</glyph>
<glyph name="diagonalbarO" format="2">
  <advance width="332"/>
  <outline>
    <contour>
      <point x="39.0" y="-111.0" type="line"/>
      <point x="60.0" y="77.0" type="line"/>
      <point x="60.0" y="77.0" type="line"/>
      <point x="132.0" y="841.0" type="line"/>
      <point x="202.0" y="775.0" type="line"/>
      <point x="135.0" y="51.0" type="line"/>
      <point x="136.0" y="51.0" type="line"/>
      <point x="120.0" y="-103.0" type="line"/>
    </contour>
    <contour>
      <point x="198.0" y="1559.0" type="line"/>
      <point x="276.0" y="1568.0" type="line"/>
      <point x="256.0" y="1380.0" type="line"/>
      <point x="256.0" y="1379.0" type="line"/>
      <point x="202.0" y="775.0" type="line"/>
      <point x="132.0" y="841.0" type="line"/>
      <point x="182.0" y="1406.0" type="line"/>
      <point x="182.0" y="1407.0" type="line"/>
    </contour>
  </outline>
</glyph>
<glyph name="dotaccentcombstack.case" format="2">
  <advance width="500"/>
  <outline>
    <contour>
      <point x="167.0" y="1561.0" type="qcurve" smooth="yes"/>
      <point x="167.0" y="1601.0"/>
      <point x="210.0" y="1643.0"/>
      <point x="250.0" y="1643.0" type="qcurve" smooth="yes"/>
      <point x="288.0" y="1643.0"/>
      <point x="333.0" y="1598.0"/>
      <point x="333.0" y="1561.0" type="qcurve" smooth="yes"/>
      <point x="333.0" y="1521.0"/>
      <point x="290.0" y="1479.0"/>
      <point x="250.0" y="1479.0" type="qcurve" smooth="yes"/>
      <point x="212.0" y="1479.0"/>
      <point x="167.0" y="1524.0"/>
    </contour>
  </outline>
</glyph>
<glyph name="ringcomb.case" format="2">
  <advance width="500"/>
  <outline>
    <contour>
      <point x="118.0" y="1591.0" type="qcurve" smooth="yes"/>
      <point x="118.0" y="1644.0"/>
      <point x="193.0" y="1721.0"/>
      <point x="250.0" y="1721.0" type="qcurve" smooth="yes"/>
      <point x="305.0" y="1721.0"/>
      <point x="382.0" y="1644.0"/>
      <point x="382.0" y="1591.0" type="qcurve" smooth="yes"/>
      <point x="382.0" y="1535.0"/>
      <point x="305.0" y="1462.0"/>
      <point x="250.0" y="1462.0" type="qcurve"/>
      <point x="193.0" y="1462.0"/>
      <point x="118.0" y="1535.0"/>
    </contour>
    <contour>
      <point x="186.0" y="1590.0" type="qcurve" smooth="yes"/>
      <point x="186.0" y="1564.0"/>
      <point x="222.0" y="1525.0"/>
      <point x="250.0" y="1525.0" type="qcurve" smooth="yes"/>
      <point x="278.0" y="1525.0"/>
      <point x="314.0" y="1563.0"/>
      <point x="314.0" y="1590.0" type="qcurve" smooth="yes"/>
      <point x="314.0" y="1615.0"/>
      <point x="278.0" y="1655.0"/>
      <point x="250.0" y="1655.0" type="qcurve" smooth="yes"/>
      <point x="222.0" y="1655.0"/>
      <point x="186.0" y="1615.0"/>
    </contour>
  </outline>
</glyph>
